<svg width="1440" height="246" viewBox="0 0 1440 246" fill="none" xmlns="http://www.w3.org/2000/svg">
<rect width="1440" height="246" fill="#1195D6"/>
<path d="M182.924 120.611C182.367 121.17 181.941 121.845 181.676 122.587C181.41 123.33 181.312 124.122 181.388 124.907L181.361 124.88C181.439 125.804 181.315 126.734 180.996 127.604C180.677 128.475 180.172 129.266 179.516 129.921C178.859 130.577 178.067 131.081 177.195 131.4C176.324 131.718 175.393 131.843 174.468 131.765L174.494 131.791C173.388 131.688 172.277 131.929 171.312 132.48C170.347 133.031 169.576 133.865 169.104 134.87C168.632 135.875 168.482 137 168.673 138.094C168.865 139.187 169.39 140.194 170.176 140.979C170.962 141.763 171.971 142.286 173.066 142.477C174.161 142.667 175.288 142.516 176.293 142.043C177.299 141.571 178.134 140.8 178.685 139.836C179.236 138.873 179.475 137.763 179.371 136.658L179.399 136.684C179.321 135.76 179.446 134.831 179.765 133.96C180.084 133.089 180.589 132.298 181.245 131.643C181.902 130.987 182.693 130.483 183.565 130.164C184.437 129.846 185.368 129.721 186.293 129.799L186.265 129.773C187.169 129.854 188.078 129.706 188.91 129.343C189.741 128.979 190.467 128.412 191.02 127.694C191.574 126.976 191.937 126.129 192.075 125.234C192.214 124.338 192.124 123.422 191.814 122.57C191.504 121.719 190.984 120.959 190.301 120.361C189.619 119.764 188.796 119.348 187.91 119.153C187.024 118.958 186.103 118.989 185.232 119.244C184.361 119.498 183.569 119.969 182.928 120.611H182.924Z" fill="white"/>
<path d="M172.09 128.333L172.062 128.306C172.848 128.385 173.642 128.289 174.387 128.024C175.131 127.759 175.807 127.333 176.366 126.775C176.925 126.217 177.353 125.542 177.619 124.799C177.884 124.056 177.981 123.263 177.903 122.478L177.931 122.504C177.853 121.58 177.977 120.651 178.296 119.78C178.615 118.909 179.12 118.119 179.777 117.463C180.433 116.808 181.225 116.303 182.097 115.985C182.968 115.666 183.899 115.542 184.824 115.62L184.796 115.593C185.903 115.697 187.014 115.457 187.98 114.907C188.945 114.357 189.716 113.522 190.189 112.518C190.662 111.513 190.813 110.388 190.622 109.294C190.431 108.201 189.907 107.193 189.121 106.408C188.335 105.623 187.326 105.1 186.231 104.909C185.136 104.718 184.009 104.869 183.003 105.341C181.997 105.813 181.162 106.584 180.611 107.548C180.06 108.512 179.82 109.622 179.924 110.727L179.897 110.699C179.975 111.623 179.851 112.553 179.532 113.423C179.214 114.294 178.708 115.085 178.052 115.741C177.395 116.396 176.604 116.901 175.732 117.219C174.86 117.537 173.929 117.662 173.004 117.584L173.03 117.611C172.244 117.532 171.45 117.629 170.706 117.894C169.961 118.158 169.285 118.585 168.726 119.143C168.167 119.701 167.74 120.376 167.474 121.119C167.208 121.862 167.111 122.655 167.19 123.44L167.163 123.414C167.241 124.337 167.116 125.267 166.797 126.138C166.478 127.008 165.973 127.799 165.317 128.454C164.66 129.11 163.869 129.614 162.997 129.933C162.125 130.251 161.195 130.376 160.27 130.298L160.296 130.325C159.19 130.221 158.078 130.46 157.113 131.011C156.148 131.561 155.376 132.395 154.903 133.4C154.43 134.405 154.279 135.53 154.47 136.624C154.662 137.717 155.186 138.725 155.972 139.51C156.758 140.295 157.767 140.818 158.862 141.009C159.956 141.2 161.084 141.049 162.089 140.577C163.095 140.105 163.931 139.334 164.482 138.37C165.033 137.406 165.273 136.296 165.169 135.191L165.197 135.217C165.119 134.294 165.243 133.364 165.562 132.493C165.881 131.623 166.386 130.832 167.043 130.176C167.699 129.521 168.491 129.016 169.363 128.698C170.234 128.379 171.165 128.255 172.09 128.333Z" fill="white"/>
<path d="M162.248 125.389C162.805 124.83 163.231 124.155 163.496 123.413C163.761 122.67 163.859 121.878 163.783 121.093L163.81 121.12C163.732 120.196 163.857 119.266 164.176 118.395C164.495 117.524 165.001 116.733 165.657 116.078C166.314 115.422 167.106 114.917 167.978 114.599C168.85 114.281 169.782 114.157 170.707 114.235L170.679 114.209C171.785 114.312 172.896 114.073 173.861 113.522C174.826 112.972 175.597 112.138 176.07 111.134C176.542 110.129 176.693 109.004 176.502 107.911C176.311 106.818 175.787 105.811 175.001 105.026C174.215 104.241 173.207 103.718 172.112 103.527C171.018 103.336 169.891 103.487 168.886 103.959C167.88 104.431 167.045 105.201 166.494 106.164C165.943 107.128 165.703 108.238 165.806 109.342L165.78 109.316C165.858 110.24 165.733 111.169 165.414 112.04C165.095 112.911 164.59 113.702 163.934 114.357C163.278 115.013 162.486 115.517 161.614 115.836C160.742 116.154 159.811 116.279 158.886 116.201L158.913 116.227C158.009 116.146 157.099 116.294 156.268 116.658C155.437 117.021 154.711 117.589 154.158 118.307C153.605 119.025 153.242 119.872 153.103 120.767C152.965 121.663 153.055 122.579 153.365 123.43C153.675 124.282 154.196 125.042 154.878 125.639C155.561 126.236 156.383 126.652 157.269 126.847C158.155 127.042 159.077 127.011 159.947 126.756C160.818 126.502 161.61 126.031 162.251 125.389H162.248Z" fill="white"/>
<path d="M207.74 110.761H212.101V131.958H207.74V110.761Z" fill="white"/>
<path d="M214.572 124.7C214.566 123.177 215.012 121.686 215.855 120.416C216.698 119.147 217.9 118.155 219.307 117.568C220.715 116.981 222.265 116.824 223.761 117.118C225.258 117.411 226.634 118.142 227.715 119.217C228.796 120.292 229.533 121.663 229.832 123.156C230.132 124.65 229.981 126.199 229.399 127.607C228.817 129.015 227.829 130.219 226.561 131.066C225.294 131.913 223.803 132.365 222.277 132.365C221.265 132.376 220.26 132.186 219.322 131.805C218.384 131.425 217.531 130.861 216.814 130.147C216.096 129.434 215.529 128.584 215.144 127.649C214.759 126.714 214.564 125.711 214.572 124.7ZM225.621 124.7C225.603 124.043 225.391 123.407 225.013 122.869C224.634 122.332 224.106 121.918 223.493 121.68C222.88 121.441 222.211 121.388 221.568 121.527C220.925 121.667 220.338 121.992 219.879 122.463C219.42 122.934 219.111 123.529 218.989 124.175C218.868 124.82 218.939 125.487 219.195 126.092C219.451 126.697 219.88 127.214 220.428 127.577C220.976 127.94 221.62 128.133 222.277 128.133C222.728 128.145 223.176 128.064 223.593 127.894C224.011 127.725 224.388 127.471 224.702 127.148C225.017 126.826 225.26 126.442 225.418 126.02C225.577 125.599 225.646 125.149 225.621 124.7Z" fill="white"/>
<path d="M247.366 117.44V131.227C247.366 136.105 243.557 138.167 239.69 138.167C238.329 138.269 236.965 137.994 235.75 137.373C234.535 136.752 233.514 135.809 232.8 134.647L236.521 132.498C236.821 133.104 237.299 133.604 237.892 133.931C238.484 134.257 239.162 134.396 239.835 134.327C240.266 134.387 240.704 134.349 241.118 134.216C241.531 134.084 241.91 133.86 242.225 133.562C242.541 133.264 242.785 132.899 242.94 132.493C243.095 132.088 243.157 131.653 243.121 131.221V129.893C242.61 130.517 241.96 131.013 241.223 131.341C240.485 131.669 239.681 131.82 238.875 131.781C236.957 131.721 235.137 130.917 233.802 129.54C232.466 128.164 231.72 126.322 231.72 124.406C231.72 122.489 232.466 120.648 233.802 119.271C235.137 117.895 236.957 117.091 238.875 117.031C239.681 116.992 240.485 117.143 241.223 117.471C241.96 117.798 242.61 118.294 243.121 118.918V117.437L247.366 117.44ZM243.122 124.408C243.151 123.706 242.97 123.011 242.6 122.413C242.231 121.815 241.691 121.341 241.05 121.053C240.408 120.764 239.695 120.673 239.002 120.793C238.308 120.912 237.667 121.236 237.159 121.723C236.652 122.209 236.302 122.836 236.154 123.523C236.007 124.21 236.069 124.926 236.332 125.577C236.595 126.229 237.047 126.787 237.63 127.18C238.214 127.573 238.901 127.782 239.605 127.781C240.063 127.813 240.523 127.749 240.955 127.593C241.387 127.436 241.781 127.191 242.112 126.874C242.444 126.556 242.705 126.172 242.879 125.748C243.053 125.323 243.136 124.867 243.122 124.408Z" fill="white"/>
<path d="M249.836 124.7C249.83 123.177 250.277 121.686 251.12 120.416C251.963 119.147 253.164 118.155 254.572 117.568C255.979 116.981 257.53 116.824 259.026 117.118C260.523 117.411 261.899 118.142 262.98 119.217C264.06 120.292 264.797 121.663 265.097 123.156C265.397 124.65 265.246 126.199 264.664 127.607C264.082 129.015 263.094 130.219 261.826 131.066C260.558 131.913 259.067 132.365 257.542 132.365C256.53 132.376 255.525 132.186 254.587 131.805C253.649 131.425 252.796 130.861 252.079 130.147C251.361 129.434 250.793 128.584 250.408 127.649C250.023 126.714 249.829 125.711 249.836 124.7ZM260.886 124.7C260.868 124.043 260.656 123.407 260.278 122.869C259.899 122.332 259.37 121.918 258.758 121.68C258.145 121.441 257.475 121.388 256.833 121.527C256.19 121.667 255.602 121.992 255.144 122.463C254.685 122.934 254.376 123.529 254.254 124.175C254.132 124.82 254.204 125.487 254.46 126.092C254.716 126.697 255.145 127.214 255.693 127.577C256.241 127.94 256.884 128.133 257.542 128.133C257.992 128.145 258.44 128.064 258.858 127.894C259.275 127.725 259.653 127.471 259.967 127.148C260.281 126.826 260.525 126.442 260.683 126.02C260.841 125.599 260.91 125.149 260.886 124.7Z" fill="white"/>
<path d="M267.282 113.549C267.282 113.032 267.435 112.527 267.723 112.097C268.01 111.667 268.419 111.332 268.897 111.134C269.375 110.936 269.902 110.885 270.409 110.985C270.917 111.086 271.383 111.335 271.749 111.701C272.115 112.066 272.364 112.532 272.465 113.039C272.566 113.546 272.514 114.071 272.316 114.549C272.118 115.027 271.783 115.435 271.352 115.722C270.922 116.009 270.416 116.162 269.899 116.162C269.207 116.155 268.545 115.878 268.056 115.389C267.566 114.901 267.288 114.24 267.282 113.549ZM267.722 117.44H272.085V131.96H267.716L267.722 117.44Z" fill="white"/>
<path d="M290.918 124.7C290.969 125.66 290.829 126.62 290.506 127.525C290.184 128.43 289.685 129.263 289.039 129.975C288.394 130.688 287.613 131.266 286.743 131.676C285.873 132.086 284.93 132.32 283.969 132.365C283.161 132.409 282.353 132.273 281.604 131.966C280.855 131.66 280.183 131.191 279.638 130.593V137.766H275.276V117.44H279.638V118.804C280.183 118.207 280.855 117.738 281.604 117.432C282.353 117.126 283.161 116.99 283.969 117.034C284.93 117.078 285.873 117.312 286.744 117.722C287.614 118.133 288.395 118.71 289.041 119.423C289.686 120.135 290.185 120.969 290.507 121.874C290.829 122.78 290.969 123.74 290.918 124.7ZM286.557 124.7C286.54 124.02 286.322 123.361 285.932 122.804C285.541 122.247 284.995 121.818 284.362 121.57C283.728 121.321 283.035 121.265 282.37 121.408C281.704 121.551 281.096 121.887 280.621 122.374C280.145 122.861 279.825 123.476 279.698 124.144C279.572 124.812 279.645 125.503 279.91 126.129C280.174 126.755 280.618 127.29 281.185 127.666C281.752 128.042 282.417 128.242 283.098 128.242C283.565 128.263 284.032 128.185 284.467 128.013C284.902 127.841 285.295 127.579 285.622 127.245C285.948 126.91 286.2 126.511 286.362 126.072C286.523 125.634 286.589 125.166 286.557 124.7Z" fill="white"/>
<path d="M304.378 127.602C304.378 130.942 301.471 132.365 298.332 132.365C297.063 132.479 295.789 132.212 294.675 131.595C293.56 130.979 292.656 130.044 292.08 128.909L295.859 126.761C296.011 127.285 296.34 127.741 296.789 128.053C297.238 128.365 297.781 128.513 298.326 128.474C299.371 128.474 299.896 128.154 299.896 127.575C299.896 125.976 292.742 126.819 292.742 121.796C292.742 118.629 295.418 117.034 298.442 117.034C299.578 116.998 300.703 117.267 301.7 117.813C302.698 118.36 303.53 119.163 304.11 120.14L300.389 122.143C300.226 121.763 299.954 121.439 299.608 121.212C299.261 120.985 298.856 120.865 298.442 120.866C297.685 120.866 297.22 121.159 297.22 121.679C297.226 123.334 304.378 122.23 304.378 127.602Z" fill="white"/>
<path d="M320.31 117.44V131.96H315.949V130.594C315.445 131.197 314.806 131.672 314.084 131.98C313.361 132.288 312.577 132.42 311.793 132.366C308.855 132.366 306.359 130.276 306.359 126.353V117.44H310.72V125.715C310.684 126.061 310.723 126.41 310.836 126.739C310.948 127.068 311.132 127.369 311.373 127.62C311.613 127.872 311.906 128.067 312.23 128.194C312.553 128.321 312.901 128.376 313.249 128.355C314.849 128.355 315.953 127.426 315.953 125.364V117.444L320.31 117.44Z" fill="white"/>
<path d="M345.32 123.044V131.958H340.958V123.421C340.958 121.969 340.261 121.041 338.866 121.041C337.412 121.041 336.597 122.057 336.597 123.77V131.958H332.237V123.421C332.237 121.969 331.539 121.041 330.142 121.041C328.688 121.041 327.875 122.057 327.875 123.77V131.958H323.513V117.438H327.875V118.773C328.327 118.181 328.92 117.711 329.6 117.407C330.282 117.103 331.028 116.974 331.771 117.032C332.517 116.996 333.26 117.153 333.928 117.489C334.595 117.824 335.163 118.327 335.579 118.948C336.062 118.298 336.702 117.782 337.44 117.447C338.177 117.112 338.988 116.969 339.795 117.032C343.133 117.034 345.32 119.414 345.32 123.044Z" fill="white"/>
<path d="M349.009 117.35C350.796 117.35 352.246 115.903 352.246 114.118C352.246 112.333 350.796 110.885 349.009 110.885C347.222 110.885 345.772 112.333 345.772 114.118C345.772 115.903 347.222 117.35 349.009 117.35Z" fill="white"/>
<path d="M416.524 120.611C415.967 121.17 415.541 121.845 415.276 122.587C415.01 123.33 414.912 124.122 414.988 124.907L414.961 124.88C415.039 125.804 414.915 126.734 414.596 127.604C414.277 128.475 413.772 129.266 413.116 129.921C412.459 130.577 411.667 131.081 410.795 131.4C409.924 131.718 408.993 131.843 408.068 131.765L408.094 131.791C406.988 131.688 405.877 131.929 404.912 132.48C403.947 133.031 403.176 133.865 402.704 134.87C402.232 135.875 402.082 137 402.273 138.094C402.465 139.187 402.99 140.194 403.776 140.979C404.562 141.763 405.571 142.286 406.666 142.477C407.761 142.667 408.888 142.516 409.893 142.043C410.899 141.571 411.734 140.8 412.285 139.836C412.836 138.873 413.075 137.763 412.971 136.658L412.999 136.684C412.921 135.76 413.046 134.831 413.365 133.96C413.684 133.089 414.189 132.298 414.845 131.643C415.502 130.987 416.293 130.483 417.165 130.164C418.037 129.846 418.968 129.721 419.893 129.799L419.865 129.773C420.769 129.854 421.678 129.706 422.51 129.343C423.341 128.979 424.067 128.412 424.62 127.694C425.174 126.976 425.537 126.129 425.675 125.234C425.814 124.338 425.724 123.422 425.414 122.57C425.104 121.719 424.584 120.959 423.901 120.361C423.219 119.764 422.396 119.348 421.51 119.153C420.624 118.958 419.703 118.989 418.832 119.244C417.961 119.498 417.169 119.969 416.528 120.611H416.524Z" fill="white"/>
<path d="M405.69 128.333L405.662 128.306C406.448 128.385 407.242 128.289 407.987 128.024C408.731 127.759 409.407 127.333 409.966 126.775C410.525 126.217 410.953 125.542 411.219 124.799C411.484 124.056 411.581 123.263 411.503 122.478L411.531 122.504C411.453 121.58 411.577 120.651 411.896 119.78C412.215 118.909 412.72 118.119 413.377 117.463C414.033 116.808 414.825 116.303 415.697 115.985C416.568 115.666 417.499 115.542 418.424 115.62L418.396 115.593C419.503 115.697 420.614 115.457 421.58 114.907C422.545 114.357 423.316 113.522 423.789 112.518C424.262 111.513 424.413 110.388 424.222 109.294C424.031 108.201 423.507 107.193 422.721 106.408C421.935 105.623 420.926 105.1 419.831 104.909C418.736 104.718 417.609 104.869 416.603 105.341C415.597 105.813 414.762 106.584 414.211 107.548C413.66 108.512 413.42 109.622 413.524 110.727L413.497 110.699C413.575 111.623 413.451 112.553 413.132 113.423C412.814 114.294 412.308 115.085 411.652 115.741C410.995 116.396 410.204 116.901 409.332 117.219C408.46 117.537 407.529 117.662 406.604 117.584L406.63 117.611C405.844 117.532 405.05 117.629 404.306 117.894C403.561 118.158 402.885 118.585 402.326 119.143C401.767 119.701 401.34 120.376 401.074 121.119C400.808 121.862 400.711 122.655 400.79 123.44L400.763 123.414C400.841 124.337 400.716 125.267 400.397 126.138C400.078 127.008 399.573 127.799 398.917 128.454C398.26 129.11 397.469 129.614 396.597 129.933C395.725 130.251 394.795 130.376 393.87 130.298L393.896 130.325C392.79 130.221 391.678 130.46 390.713 131.011C389.748 131.561 388.976 132.395 388.503 133.4C388.03 134.405 387.879 135.53 388.07 136.624C388.262 137.717 388.786 138.725 389.572 139.51C390.358 140.295 391.367 140.818 392.462 141.009C393.556 141.2 394.684 141.049 395.689 140.577C396.695 140.105 397.531 139.334 398.082 138.37C398.633 137.406 398.873 136.296 398.769 135.191L398.797 135.217C398.719 134.294 398.843 133.364 399.162 132.493C399.481 131.623 399.986 130.832 400.643 130.176C401.299 129.521 402.091 129.016 402.963 128.698C403.834 128.379 404.765 128.255 405.69 128.333Z" fill="white"/>
<path d="M395.848 125.389C396.405 124.83 396.831 124.155 397.096 123.413C397.361 122.67 397.459 121.878 397.383 121.093L397.41 121.12C397.332 120.196 397.457 119.266 397.776 118.395C398.095 117.524 398.601 116.733 399.257 116.078C399.914 115.422 400.706 114.917 401.578 114.599C402.45 114.281 403.382 114.157 404.307 114.235L404.279 114.209C405.385 114.312 406.496 114.073 407.461 113.522C408.426 112.972 409.197 112.138 409.67 111.134C410.142 110.129 410.293 109.004 410.102 107.911C409.911 106.818 409.387 105.811 408.601 105.026C407.815 104.241 406.807 103.718 405.712 103.527C404.618 103.336 403.491 103.487 402.486 103.959C401.48 104.431 400.645 105.201 400.094 106.164C399.543 107.128 399.303 108.238 399.406 109.342L399.38 109.316C399.458 110.24 399.333 111.169 399.014 112.04C398.695 112.911 398.19 113.702 397.534 114.357C396.878 115.013 396.086 115.517 395.214 115.836C394.342 116.154 393.411 116.279 392.486 116.201L392.513 116.227C391.609 116.146 390.699 116.294 389.868 116.658C389.037 117.021 388.311 117.589 387.758 118.307C387.205 119.025 386.842 119.872 386.703 120.767C386.565 121.663 386.655 122.579 386.965 123.43C387.275 124.282 387.796 125.042 388.478 125.639C389.161 126.236 389.983 126.652 390.869 126.847C391.755 127.042 392.677 127.011 393.547 126.756C394.418 126.502 395.21 126.031 395.851 125.389H395.848Z" fill="white"/>
<path d="M441.34 110.761H445.701V131.958H441.34V110.761Z" fill="white"/>
<path d="M448.172 124.7C448.166 123.177 448.612 121.686 449.455 120.416C450.298 119.147 451.5 118.155 452.907 117.568C454.315 116.981 455.865 116.824 457.362 117.118C458.858 117.411 460.234 118.142 461.315 119.217C462.396 120.292 463.133 121.663 463.432 123.156C463.732 124.65 463.581 126.199 462.999 127.607C462.417 129.015 461.429 130.219 460.161 131.066C458.894 131.913 457.403 132.365 455.877 132.365C454.865 132.376 453.86 132.186 452.922 131.805C451.984 131.425 451.131 130.861 450.414 130.147C449.696 129.434 449.129 128.584 448.744 127.649C448.359 126.714 448.164 125.711 448.172 124.7ZM459.221 124.7C459.203 124.043 458.991 123.407 458.613 122.869C458.234 122.332 457.706 121.918 457.093 121.68C456.48 121.441 455.811 121.388 455.168 121.527C454.525 121.667 453.938 121.992 453.479 122.463C453.02 122.934 452.711 123.529 452.589 124.175C452.468 124.82 452.539 125.487 452.795 126.092C453.051 126.697 453.48 127.214 454.028 127.577C454.576 127.94 455.22 128.133 455.877 128.133C456.328 128.145 456.776 128.064 457.193 127.894C457.611 127.725 457.988 127.471 458.302 127.148C458.617 126.826 458.86 126.442 459.018 126.02C459.177 125.599 459.246 125.149 459.221 124.7Z" fill="white"/>
<path d="M480.966 117.44V131.227C480.966 136.105 477.157 138.167 473.29 138.167C471.929 138.269 470.565 137.994 469.35 137.373C468.135 136.752 467.114 135.809 466.4 134.647L470.121 132.498C470.421 133.104 470.899 133.604 471.492 133.931C472.084 134.257 472.762 134.396 473.435 134.327C473.866 134.387 474.304 134.349 474.718 134.216C475.131 134.084 475.51 133.86 475.825 133.562C476.141 133.264 476.385 132.899 476.54 132.493C476.695 132.088 476.757 131.653 476.721 131.221V129.893C476.21 130.517 475.56 131.013 474.823 131.341C474.085 131.669 473.281 131.82 472.475 131.781C470.557 131.721 468.737 130.917 467.402 129.54C466.066 128.164 465.32 126.322 465.32 124.406C465.32 122.489 466.066 120.648 467.402 119.271C468.737 117.895 470.557 117.091 472.475 117.031C473.281 116.992 474.085 117.143 474.823 117.471C475.56 117.798 476.21 118.294 476.721 118.918V117.437L480.966 117.44ZM476.722 124.408C476.751 123.706 476.57 123.011 476.2 122.413C475.831 121.815 475.291 121.341 474.65 121.053C474.008 120.764 473.295 120.673 472.602 120.793C471.908 120.912 471.267 121.236 470.759 121.723C470.252 122.209 469.902 122.836 469.754 123.523C469.607 124.21 469.669 124.926 469.932 125.577C470.195 126.229 470.647 126.787 471.23 127.18C471.814 127.573 472.501 127.782 473.205 127.781C473.663 127.813 474.123 127.749 474.555 127.593C474.987 127.436 475.381 127.191 475.712 126.874C476.044 126.556 476.305 126.172 476.479 125.748C476.653 125.323 476.736 124.867 476.722 124.408Z" fill="white"/>
<path d="M483.436 124.7C483.43 123.177 483.877 121.686 484.72 120.416C485.563 119.147 486.764 118.155 488.172 117.568C489.579 116.981 491.13 116.824 492.626 117.118C494.123 117.411 495.499 118.142 496.58 119.217C497.66 120.292 498.397 121.663 498.697 123.156C498.997 124.65 498.846 126.199 498.264 127.607C497.682 129.015 496.694 130.219 495.426 131.066C494.158 131.913 492.667 132.365 491.142 132.365C490.13 132.376 489.125 132.186 488.187 131.805C487.249 131.425 486.396 130.861 485.679 130.147C484.961 129.434 484.393 128.584 484.008 127.649C483.623 126.714 483.429 125.711 483.436 124.7ZM494.486 124.7C494.468 124.043 494.256 123.407 493.878 122.869C493.499 122.332 492.97 121.918 492.358 121.68C491.745 121.441 491.075 121.388 490.433 121.527C489.79 121.667 489.202 121.992 488.744 122.463C488.285 122.934 487.976 123.529 487.854 124.175C487.732 124.82 487.804 125.487 488.06 126.092C488.316 126.697 488.745 127.214 489.293 127.577C489.841 127.94 490.484 128.133 491.142 128.133C491.592 128.145 492.04 128.064 492.458 127.894C492.875 127.725 493.253 127.471 493.567 127.148C493.881 126.826 494.125 126.442 494.283 126.02C494.441 125.599 494.51 125.149 494.486 124.7Z" fill="white"/>
<path d="M500.882 113.549C500.882 113.032 501.035 112.527 501.323 112.097C501.61 111.667 502.019 111.332 502.497 111.134C502.975 110.936 503.502 110.885 504.009 110.985C504.517 111.086 504.983 111.335 505.349 111.701C505.715 112.066 505.964 112.532 506.065 113.039C506.166 113.546 506.114 114.071 505.916 114.549C505.718 115.027 505.383 115.435 504.952 115.722C504.522 116.009 504.016 116.162 503.499 116.162C502.807 116.155 502.145 115.878 501.656 115.389C501.166 114.901 500.888 114.24 500.882 113.549ZM501.322 117.44H505.685V131.96H501.316L501.322 117.44Z" fill="white"/>
<path d="M524.518 124.7C524.569 125.66 524.429 126.62 524.106 127.525C523.784 128.43 523.285 129.263 522.64 129.975C521.994 130.688 521.213 131.266 520.343 131.676C519.473 132.086 518.53 132.32 517.569 132.365C516.761 132.409 515.953 132.273 515.204 131.966C514.455 131.66 513.783 131.191 513.238 130.593V137.766H508.876V117.44H513.238V118.804C513.783 118.207 514.455 117.738 515.204 117.432C515.953 117.126 516.761 116.99 517.569 117.034C518.53 117.078 519.473 117.312 520.344 117.722C521.214 118.133 521.995 118.71 522.641 119.423C523.286 120.135 523.785 120.969 524.107 121.874C524.429 122.78 524.569 123.74 524.518 124.7ZM520.157 124.7C520.14 124.02 519.922 123.361 519.532 122.804C519.141 122.247 518.595 121.818 517.962 121.57C517.328 121.321 516.635 121.265 515.97 121.408C515.304 121.551 514.696 121.887 514.221 122.374C513.745 122.861 513.425 123.476 513.298 124.144C513.172 124.812 513.245 125.503 513.51 126.129C513.774 126.755 514.218 127.29 514.785 127.666C515.352 128.042 516.017 128.242 516.698 128.242C517.165 128.263 517.632 128.185 518.067 128.013C518.502 127.841 518.895 127.579 519.222 127.245C519.548 126.91 519.8 126.511 519.962 126.072C520.123 125.634 520.189 125.166 520.157 124.7Z" fill="white"/>
<path d="M537.978 127.602C537.978 130.942 535.071 132.365 531.932 132.365C530.663 132.479 529.389 132.212 528.275 131.595C527.16 130.979 526.256 130.044 525.68 128.909L529.459 126.761C529.611 127.285 529.94 127.741 530.389 128.053C530.838 128.365 531.381 128.513 531.926 128.474C532.971 128.474 533.496 128.154 533.496 127.575C533.496 125.976 526.342 126.819 526.342 121.796C526.342 118.629 529.018 117.034 532.042 117.034C533.178 116.998 534.303 117.267 535.3 117.813C536.298 118.36 537.13 119.163 537.71 120.14L533.989 122.143C533.826 121.763 533.554 121.439 533.208 121.212C532.861 120.985 532.456 120.865 532.042 120.866C531.285 120.866 530.82 121.159 530.82 121.679C530.826 123.334 537.978 122.23 537.978 127.602Z" fill="white"/>
<path d="M553.91 117.44V131.96H549.549V130.594C549.045 131.197 548.406 131.672 547.684 131.98C546.961 132.288 546.177 132.42 545.393 132.366C542.455 132.366 539.959 130.276 539.959 126.353V117.44H544.32V125.715C544.284 126.061 544.323 126.41 544.436 126.739C544.548 127.068 544.732 127.369 544.973 127.62C545.213 127.872 545.506 128.067 545.83 128.194C546.153 128.321 546.501 128.376 546.849 128.355C548.449 128.355 549.553 127.426 549.553 125.364V117.444L553.91 117.44Z" fill="white"/>
<path d="M578.92 123.044V131.958H574.558V123.421C574.558 121.969 573.861 121.041 572.466 121.041C571.012 121.041 570.197 122.057 570.197 123.77V131.958H565.837V123.421C565.837 121.969 565.139 121.041 563.742 121.041C562.288 121.041 561.475 122.057 561.475 123.77V131.958H557.113V117.438H561.475V118.773C561.927 118.181 562.52 117.711 563.2 117.407C563.882 117.103 564.628 116.974 565.371 117.032C566.117 116.996 566.86 117.153 567.528 117.489C568.195 117.824 568.763 118.327 569.179 118.948C569.662 118.298 570.302 117.782 571.04 117.447C571.777 117.112 572.588 116.969 573.395 117.032C576.733 117.034 578.92 119.414 578.92 123.044Z" fill="white"/>
<path d="M582.609 117.35C584.396 117.35 585.846 115.903 585.846 114.118C585.846 112.333 584.396 110.885 582.609 110.885C580.822 110.885 579.372 112.333 579.372 114.118C579.372 115.903 580.822 117.35 582.609 117.35Z" fill="white"/>
<path d="M650.124 120.611C649.567 121.17 649.141 121.845 648.876 122.587C648.61 123.33 648.512 124.122 648.588 124.907L648.561 124.88C648.639 125.804 648.515 126.734 648.196 127.604C647.877 128.475 647.372 129.266 646.716 129.921C646.059 130.577 645.267 131.081 644.395 131.4C643.524 131.718 642.593 131.843 641.668 131.765L641.694 131.791C640.588 131.688 639.477 131.929 638.512 132.48C637.547 133.031 636.776 133.865 636.304 134.87C635.832 135.875 635.682 137 635.873 138.094C636.065 139.187 636.59 140.194 637.376 140.979C638.162 141.763 639.171 142.286 640.266 142.477C641.361 142.667 642.488 142.516 643.493 142.043C644.499 141.571 645.334 140.8 645.885 139.836C646.436 138.873 646.675 137.763 646.571 136.658L646.599 136.684C646.521 135.76 646.646 134.831 646.965 133.96C647.284 133.089 647.789 132.298 648.445 131.643C649.102 130.987 649.893 130.483 650.765 130.164C651.637 129.846 652.568 129.721 653.493 129.799L653.465 129.773C654.369 129.854 655.278 129.706 656.11 129.343C656.941 128.979 657.667 128.412 658.22 127.694C658.774 126.976 659.137 126.129 659.275 125.234C659.414 124.338 659.324 123.422 659.014 122.57C658.704 121.719 658.184 120.959 657.501 120.361C656.819 119.764 655.996 119.348 655.11 119.153C654.224 118.958 653.303 118.989 652.432 119.244C651.561 119.498 650.769 119.969 650.128 120.611H650.124Z" fill="white"/>
<path d="M639.29 128.333L639.262 128.306C640.048 128.385 640.842 128.289 641.587 128.024C642.331 127.759 643.007 127.333 643.566 126.775C644.125 126.217 644.553 125.542 644.819 124.799C645.084 124.056 645.181 123.263 645.103 122.478L645.131 122.504C645.053 121.58 645.177 120.651 645.496 119.78C645.815 118.909 646.32 118.119 646.977 117.463C647.633 116.808 648.425 116.303 649.297 115.985C650.168 115.666 651.099 115.542 652.024 115.62L651.996 115.593C653.103 115.697 654.214 115.457 655.18 114.907C656.145 114.357 656.916 113.522 657.389 112.518C657.862 111.513 658.013 110.388 657.822 109.294C657.631 108.201 657.107 107.193 656.321 106.408C655.535 105.623 654.526 105.1 653.431 104.909C652.336 104.718 651.209 104.869 650.203 105.341C649.197 105.813 648.362 106.584 647.811 107.548C647.26 108.512 647.02 109.622 647.124 110.727L647.097 110.699C647.175 111.623 647.051 112.553 646.732 113.423C646.414 114.294 645.908 115.085 645.252 115.741C644.595 116.396 643.804 116.901 642.932 117.219C642.06 117.537 641.129 117.662 640.204 117.584L640.23 117.611C639.444 117.532 638.65 117.629 637.906 117.894C637.161 118.158 636.485 118.585 635.926 119.143C635.367 119.701 634.94 120.376 634.674 121.119C634.408 121.862 634.311 122.655 634.39 123.44L634.363 123.414C634.441 124.337 634.316 125.267 633.997 126.138C633.678 127.008 633.173 127.799 632.517 128.454C631.86 129.11 631.069 129.614 630.197 129.933C629.325 130.251 628.395 130.376 627.47 130.298L627.496 130.325C626.39 130.221 625.278 130.46 624.313 131.011C623.348 131.561 622.576 132.395 622.103 133.4C621.63 134.405 621.479 135.53 621.67 136.624C621.862 137.717 622.386 138.725 623.172 139.51C623.958 140.295 624.967 140.818 626.062 141.009C627.156 141.2 628.284 141.049 629.289 140.577C630.295 140.105 631.131 139.334 631.682 138.37C632.233 137.406 632.473 136.296 632.369 135.191L632.397 135.217C632.319 134.294 632.443 133.364 632.762 132.493C633.081 131.623 633.586 130.832 634.243 130.176C634.899 129.521 635.691 129.016 636.563 128.698C637.434 128.379 638.365 128.255 639.29 128.333Z" fill="white"/>
<path d="M629.448 125.389C630.005 124.83 630.431 124.155 630.696 123.413C630.961 122.67 631.059 121.878 630.983 121.093L631.01 121.12C630.932 120.196 631.057 119.266 631.376 118.395C631.695 117.524 632.201 116.733 632.857 116.078C633.514 115.422 634.306 114.917 635.178 114.599C636.05 114.281 636.982 114.157 637.907 114.235L637.879 114.209C638.985 114.312 640.096 114.073 641.061 113.522C642.026 112.972 642.797 112.138 643.27 111.134C643.742 110.129 643.893 109.004 643.702 107.911C643.511 106.818 642.987 105.811 642.201 105.026C641.415 104.241 640.407 103.718 639.312 103.527C638.218 103.336 637.091 103.487 636.086 103.959C635.08 104.431 634.245 105.201 633.694 106.164C633.143 107.128 632.903 108.238 633.006 109.342L632.98 109.316C633.058 110.24 632.933 111.169 632.614 112.04C632.295 112.911 631.79 113.702 631.134 114.357C630.478 115.013 629.686 115.517 628.814 115.836C627.942 116.154 627.011 116.279 626.086 116.201L626.113 116.227C625.209 116.146 624.299 116.294 623.468 116.658C622.637 117.021 621.911 117.589 621.358 118.307C620.805 119.025 620.442 119.872 620.303 120.767C620.165 121.663 620.255 122.579 620.565 123.43C620.875 124.282 621.396 125.042 622.078 125.639C622.761 126.236 623.583 126.652 624.469 126.847C625.355 127.042 626.277 127.011 627.147 126.756C628.018 126.502 628.81 126.031 629.451 125.389H629.448Z" fill="white"/>
<path d="M674.94 110.761H679.301V131.958H674.94V110.761Z" fill="white"/>
<path d="M681.772 124.7C681.766 123.177 682.212 121.686 683.055 120.416C683.898 119.147 685.1 118.155 686.507 117.568C687.915 116.981 689.465 116.824 690.962 117.118C692.458 117.411 693.834 118.142 694.915 119.217C695.996 120.292 696.733 121.663 697.032 123.156C697.332 124.65 697.181 126.199 696.599 127.607C696.017 129.015 695.029 130.219 693.761 131.066C692.494 131.913 691.003 132.365 689.477 132.365C688.465 132.376 687.46 132.186 686.522 131.805C685.584 131.425 684.731 130.861 684.014 130.147C683.296 129.434 682.729 128.584 682.344 127.649C681.959 126.714 681.764 125.711 681.772 124.7ZM692.821 124.7C692.803 124.043 692.591 123.407 692.213 122.869C691.834 122.332 691.306 121.918 690.693 121.68C690.08 121.441 689.411 121.388 688.768 121.527C688.125 121.667 687.538 121.992 687.079 122.463C686.62 122.934 686.311 123.529 686.189 124.175C686.068 124.82 686.139 125.487 686.395 126.092C686.651 126.697 687.08 127.214 687.628 127.577C688.176 127.94 688.82 128.133 689.477 128.133C689.928 128.145 690.376 128.064 690.793 127.894C691.211 127.725 691.588 127.471 691.902 127.148C692.217 126.826 692.46 126.442 692.618 126.02C692.777 125.599 692.846 125.149 692.821 124.7Z" fill="white"/>
<path d="M714.566 117.44V131.227C714.566 136.105 710.757 138.167 706.89 138.167C705.529 138.269 704.165 137.994 702.95 137.373C701.735 136.752 700.714 135.809 700 134.647L703.721 132.498C704.021 133.104 704.499 133.604 705.092 133.931C705.684 134.257 706.362 134.396 707.035 134.327C707.466 134.387 707.904 134.349 708.318 134.216C708.731 134.084 709.11 133.86 709.425 133.562C709.741 133.264 709.985 132.899 710.14 132.493C710.295 132.088 710.357 131.653 710.321 131.221V129.893C709.81 130.517 709.16 131.013 708.423 131.341C707.685 131.669 706.881 131.82 706.075 131.781C704.157 131.721 702.337 130.917 701.002 129.54C699.666 128.164 698.92 126.322 698.92 124.406C698.92 122.489 699.666 120.648 701.002 119.271C702.337 117.895 704.157 117.091 706.075 117.031C706.881 116.992 707.685 117.143 708.423 117.471C709.16 117.798 709.81 118.294 710.321 118.918V117.437L714.566 117.44ZM710.322 124.408C710.352 123.706 710.17 123.011 709.8 122.413C709.431 121.815 708.891 121.341 708.25 121.053C707.608 120.764 706.895 120.673 706.202 120.793C705.508 120.912 704.867 121.236 704.359 121.723C703.852 122.209 703.502 122.836 703.354 123.523C703.207 124.21 703.269 124.926 703.532 125.577C703.795 126.229 704.247 126.787 704.83 127.18C705.414 127.573 706.101 127.782 706.805 127.781C707.263 127.813 707.723 127.749 708.155 127.593C708.587 127.436 708.981 127.191 709.312 126.874C709.644 126.556 709.905 126.172 710.079 125.748C710.253 125.323 710.336 124.867 710.322 124.408Z" fill="white"/>
<path d="M717.036 124.7C717.03 123.177 717.477 121.686 718.32 120.416C719.163 119.147 720.364 118.155 721.772 117.568C723.179 116.981 724.73 116.824 726.226 117.118C727.723 117.411 729.099 118.142 730.18 119.217C731.26 120.292 731.997 121.663 732.297 123.156C732.597 124.65 732.446 126.199 731.864 127.607C731.282 129.015 730.294 130.219 729.026 131.066C727.758 131.913 726.267 132.365 724.742 132.365C723.73 132.376 722.725 132.186 721.787 131.805C720.849 131.425 719.996 130.861 719.279 130.147C718.561 129.434 717.993 128.584 717.608 127.649C717.223 126.714 717.029 125.711 717.036 124.7ZM728.086 124.7C728.068 124.043 727.856 123.407 727.478 122.869C727.099 122.332 726.57 121.918 725.958 121.68C725.345 121.441 724.675 121.388 724.033 121.527C723.39 121.667 722.802 121.992 722.344 122.463C721.885 122.934 721.576 123.529 721.454 124.175C721.332 124.82 721.404 125.487 721.66 126.092C721.916 126.697 722.345 127.214 722.893 127.577C723.441 127.94 724.084 128.133 724.742 128.133C725.192 128.145 725.64 128.064 726.058 127.894C726.475 127.725 726.853 127.471 727.167 127.148C727.481 126.826 727.725 126.442 727.883 126.02C728.041 125.599 728.11 125.149 728.086 124.7Z" fill="white"/>
<path d="M734.482 113.549C734.482 113.032 734.635 112.527 734.923 112.097C735.21 111.667 735.619 111.332 736.097 111.134C736.575 110.936 737.102 110.885 737.609 110.985C738.117 111.086 738.583 111.335 738.949 111.701C739.315 112.066 739.564 112.532 739.665 113.039C739.766 113.546 739.714 114.071 739.516 114.549C739.318 115.027 738.983 115.435 738.552 115.722C738.122 116.009 737.616 116.162 737.099 116.162C736.407 116.155 735.745 115.878 735.256 115.389C734.767 114.901 734.489 114.24 734.482 113.549ZM734.922 117.44H739.285V131.96H734.916L734.922 117.44Z" fill="white"/>
<path d="M758.118 124.7C758.169 125.66 758.029 126.62 757.706 127.525C757.384 128.43 756.885 129.263 756.24 129.975C755.594 130.688 754.813 131.266 753.943 131.676C753.073 132.086 752.13 132.32 751.169 132.365C750.361 132.409 749.553 132.273 748.804 131.966C748.055 131.66 747.383 131.191 746.838 130.593V137.766H742.477V117.44H746.838V118.804C747.383 118.207 748.055 117.738 748.804 117.432C749.553 117.126 750.361 116.99 751.169 117.034C752.13 117.078 753.073 117.312 753.944 117.722C754.814 118.133 755.595 118.71 756.241 119.423C756.886 120.135 757.385 120.969 757.707 121.874C758.029 122.78 758.169 123.74 758.118 124.7ZM753.757 124.7C753.74 124.02 753.522 123.361 753.132 122.804C752.741 122.247 752.195 121.818 751.562 121.57C750.928 121.321 750.235 121.265 749.57 121.408C748.904 121.551 748.296 121.887 747.821 122.374C747.345 122.861 747.025 123.476 746.898 124.144C746.772 124.812 746.845 125.503 747.11 126.129C747.374 126.755 747.818 127.29 748.385 127.666C748.952 128.042 749.617 128.242 750.298 128.242C750.765 128.263 751.232 128.185 751.667 128.013C752.102 127.841 752.495 127.579 752.822 127.245C753.148 126.91 753.4 126.511 753.562 126.072C753.723 125.634 753.789 125.166 753.757 124.7Z" fill="white"/>
<path d="M771.578 127.602C771.578 130.942 768.671 132.365 765.532 132.365C764.263 132.479 762.989 132.212 761.875 131.595C760.76 130.979 759.856 130.044 759.28 128.909L763.059 126.761C763.211 127.285 763.54 127.741 763.989 128.053C764.438 128.365 764.981 128.513 765.526 128.474C766.571 128.474 767.096 128.154 767.096 127.575C767.096 125.976 759.942 126.819 759.942 121.796C759.942 118.629 762.618 117.034 765.642 117.034C766.778 116.998 767.903 117.267 768.9 117.813C769.898 118.36 770.73 119.163 771.31 120.14L767.589 122.143C767.426 121.763 767.154 121.439 766.808 121.212C766.461 120.985 766.056 120.865 765.642 120.866C764.885 120.866 764.42 121.159 764.42 121.679C764.426 123.334 771.578 122.23 771.578 127.602Z" fill="white"/>
<path d="M787.51 117.44V131.96H783.149V130.594C782.645 131.197 782.006 131.672 781.284 131.98C780.561 132.288 779.777 132.42 778.993 132.366C776.055 132.366 773.559 130.276 773.559 126.353V117.44H777.92V125.715C777.884 126.061 777.923 126.41 778.036 126.739C778.148 127.068 778.332 127.369 778.573 127.62C778.813 127.872 779.106 128.067 779.43 128.194C779.753 128.321 780.101 128.376 780.449 128.355C782.049 128.355 783.153 127.426 783.153 125.364V117.444L787.51 117.44Z" fill="white"/>
<path d="M812.52 123.044V131.958H808.158V123.421C808.158 121.969 807.461 121.041 806.066 121.041C804.612 121.041 803.797 122.057 803.797 123.77V131.958H799.437V123.421C799.437 121.969 798.739 121.041 797.342 121.041C795.888 121.041 795.075 122.057 795.075 123.77V131.958H790.713V117.438H795.075V118.773C795.527 118.181 796.12 117.711 796.8 117.407C797.482 117.103 798.228 116.974 798.971 117.032C799.717 116.996 800.46 117.153 801.128 117.489C801.795 117.824 802.363 118.327 802.779 118.948C803.262 118.298 803.902 117.782 804.64 117.447C805.377 117.112 806.188 116.969 806.995 117.032C810.333 117.034 812.52 119.414 812.52 123.044Z" fill="white"/>
<path d="M816.209 117.35C817.996 117.35 819.446 115.903 819.446 114.118C819.446 112.333 817.996 110.885 816.209 110.885C814.422 110.885 812.972 112.333 812.972 114.118C812.972 115.903 814.422 117.35 816.209 117.35Z" fill="white"/>
<path d="M883.724 120.611C883.167 121.17 882.741 121.845 882.476 122.587C882.21 123.33 882.112 124.122 882.188 124.907L882.161 124.88C882.24 125.804 882.115 126.734 881.796 127.604C881.477 128.475 880.972 129.266 880.316 129.921C879.659 130.577 878.867 131.081 877.995 131.4C877.124 131.718 876.193 131.843 875.268 131.765L875.294 131.791C874.188 131.688 873.077 131.929 872.112 132.48C871.147 133.031 870.376 133.865 869.904 134.87C869.432 135.875 869.282 137 869.473 138.094C869.665 139.187 870.19 140.194 870.976 140.979C871.762 141.763 872.771 142.286 873.866 142.477C874.961 142.667 876.088 142.516 877.093 142.043C878.099 141.571 878.934 140.8 879.485 139.836C880.036 138.873 880.275 137.763 880.171 136.658L880.199 136.684C880.121 135.76 880.246 134.831 880.565 133.96C880.884 133.089 881.389 132.298 882.045 131.643C882.702 130.987 883.493 130.483 884.365 130.164C885.237 129.846 886.168 129.721 887.093 129.799L887.065 129.773C887.969 129.854 888.878 129.706 889.71 129.343C890.541 128.979 891.267 128.412 891.82 127.694C892.374 126.976 892.737 126.129 892.876 125.234C893.014 124.338 892.924 123.422 892.614 122.57C892.304 121.719 891.784 120.959 891.101 120.361C890.419 119.764 889.596 119.348 888.71 119.153C887.824 118.958 886.903 118.989 886.032 119.244C885.161 119.498 884.369 119.969 883.728 120.611H883.724Z" fill="white"/>
<path d="M872.89 128.333L872.862 128.306C873.649 128.385 874.442 128.289 875.187 128.024C875.931 127.759 876.607 127.333 877.166 126.775C877.725 126.217 878.153 125.542 878.419 124.799C878.684 124.056 878.781 123.263 878.703 122.478L878.731 122.504C878.653 121.58 878.778 120.651 879.096 119.78C879.415 118.909 879.92 118.119 880.577 117.463C881.233 116.808 882.025 116.303 882.897 115.985C883.768 115.666 884.699 115.542 885.624 115.62L885.596 115.593C886.703 115.697 887.815 115.457 888.78 114.907C889.745 114.357 890.517 113.522 890.989 112.518C891.462 111.513 891.613 110.388 891.422 109.294C891.231 108.201 890.707 107.193 889.921 106.408C889.135 105.623 888.126 105.1 887.031 104.909C885.936 104.718 884.809 104.869 883.803 105.341C882.797 105.813 881.962 106.584 881.411 107.548C880.86 108.512 880.62 109.622 880.724 110.727L880.697 110.699C880.775 111.623 880.651 112.553 880.332 113.423C880.014 114.294 879.508 115.085 878.852 115.741C878.196 116.396 877.404 116.901 876.532 117.219C875.66 117.537 874.729 117.662 873.804 117.584L873.83 117.611C873.044 117.532 872.25 117.629 871.506 117.894C870.761 118.158 870.085 118.585 869.526 119.143C868.967 119.701 868.54 120.376 868.274 121.119C868.008 121.862 867.911 122.655 867.99 123.44L867.963 123.414C868.041 124.337 867.916 125.267 867.597 126.138C867.278 127.008 866.773 127.799 866.117 128.454C865.46 129.11 864.669 129.614 863.797 129.933C862.925 130.251 861.995 130.376 861.07 130.298L861.096 130.325C859.99 130.221 858.878 130.46 857.913 131.011C856.948 131.561 856.176 132.395 855.703 133.4C855.23 134.405 855.079 135.53 855.27 136.624C855.462 137.717 855.986 138.725 856.772 139.51C857.558 140.295 858.567 140.818 859.662 141.009C860.757 141.2 861.884 141.049 862.889 140.577C863.895 140.105 864.731 139.334 865.282 138.37C865.833 137.406 866.073 136.296 865.969 135.191L865.997 135.217C865.919 134.294 866.044 133.364 866.362 132.493C866.681 131.623 867.186 130.832 867.843 130.176C868.499 129.521 869.291 129.016 870.163 128.698C871.034 128.379 871.965 128.255 872.89 128.333Z" fill="white"/>
<path d="M863.048 125.389C863.605 124.83 864.031 124.155 864.296 123.413C864.561 122.67 864.659 121.878 864.583 121.093L864.61 121.12C864.532 120.196 864.657 119.266 864.976 118.395C865.295 117.524 865.801 116.733 866.457 116.078C867.114 115.422 867.906 114.917 868.778 114.599C869.65 114.281 870.582 114.157 871.507 114.235L871.479 114.209C872.585 114.312 873.696 114.073 874.661 113.522C875.626 112.972 876.397 112.138 876.87 111.134C877.342 110.129 877.493 109.004 877.302 107.911C877.111 106.818 876.587 105.811 875.801 105.026C875.015 104.241 874.007 103.718 872.912 103.527C871.818 103.336 870.691 103.487 869.686 103.959C868.68 104.431 867.845 105.201 867.294 106.164C866.743 107.128 866.503 108.238 866.606 109.342L866.58 109.316C866.658 110.24 866.533 111.169 866.214 112.04C865.895 112.911 865.39 113.702 864.734 114.357C864.078 115.013 863.286 115.517 862.414 115.836C861.542 116.154 860.611 116.279 859.686 116.201L859.713 116.227C858.809 116.146 857.899 116.294 857.068 116.658C856.237 117.021 855.511 117.589 854.958 118.307C854.405 119.025 854.042 119.872 853.903 120.767C853.765 121.663 853.855 122.579 854.165 123.43C854.475 124.282 854.996 125.042 855.678 125.639C856.361 126.236 857.183 126.652 858.069 126.847C858.955 127.042 859.877 127.011 860.747 126.756C861.618 126.502 862.41 126.031 863.051 125.389H863.048Z" fill="white"/>
<path d="M908.54 110.761H912.902V131.958H908.54V110.761Z" fill="white"/>
<path d="M915.372 124.7C915.366 123.177 915.812 121.686 916.655 120.416C917.498 119.147 918.7 118.155 920.107 117.568C921.515 116.981 923.065 116.824 924.562 117.118C926.058 117.411 927.434 118.142 928.515 119.217C929.596 120.292 930.333 121.663 930.632 123.156C930.932 124.65 930.782 126.199 930.199 127.607C929.617 129.015 928.629 130.219 927.362 131.066C926.094 131.913 924.603 132.365 923.077 132.365C922.065 132.376 921.06 132.186 920.122 131.805C919.184 131.425 918.331 130.861 917.614 130.147C916.896 129.434 916.329 128.584 915.944 127.649C915.559 126.714 915.364 125.711 915.372 124.7ZM926.421 124.7C926.403 124.043 926.191 123.407 925.813 122.869C925.434 122.332 924.906 121.918 924.293 121.68C923.68 121.441 923.011 121.388 922.368 121.527C921.725 121.667 921.138 121.992 920.679 122.463C920.22 122.934 919.911 123.529 919.789 124.175C919.668 124.82 919.739 125.487 919.995 126.092C920.251 126.697 920.68 127.214 921.228 127.577C921.776 127.94 922.42 128.133 923.077 128.133C923.528 128.145 923.976 128.064 924.393 127.894C924.811 127.725 925.188 127.471 925.502 127.148C925.817 126.826 926.061 126.442 926.219 126.02C926.377 125.599 926.446 125.149 926.421 124.7Z" fill="white"/>
<path d="M948.166 117.44V131.227C948.166 136.105 944.357 138.167 940.49 138.167C939.129 138.269 937.765 137.994 936.55 137.373C935.335 136.752 934.314 135.809 933.6 134.647L937.321 132.498C937.621 133.104 938.099 133.604 938.692 133.931C939.284 134.257 939.962 134.396 940.636 134.327C941.066 134.387 941.504 134.349 941.918 134.216C942.331 134.084 942.71 133.86 943.025 133.562C943.341 133.264 943.585 132.899 943.74 132.493C943.895 132.088 943.957 131.653 943.921 131.221V129.893C943.41 130.517 942.76 131.013 942.023 131.341C941.285 131.669 940.481 131.82 939.675 131.781C937.757 131.721 935.937 130.917 934.602 129.54C933.266 128.164 932.52 126.322 932.52 124.406C932.52 122.489 933.266 120.648 934.602 119.271C935.937 117.895 937.757 117.091 939.675 117.031C940.481 116.992 941.285 117.143 942.023 117.471C942.76 117.798 943.41 118.294 943.921 118.918V117.437L948.166 117.44ZM943.922 124.408C943.952 123.706 943.77 123.011 943.4 122.413C943.031 121.815 942.491 121.341 941.85 121.053C941.208 120.764 940.495 120.673 939.802 120.793C939.108 120.912 938.467 121.236 937.959 121.723C937.452 122.209 937.102 122.836 936.954 123.523C936.807 124.21 936.869 124.926 937.132 125.577C937.395 126.229 937.847 126.787 938.43 127.18C939.014 127.573 939.701 127.782 940.405 127.781C940.863 127.813 941.323 127.749 941.755 127.593C942.187 127.436 942.581 127.191 942.913 126.874C943.244 126.556 943.505 126.172 943.679 125.748C943.853 125.323 943.936 124.867 943.922 124.408Z" fill="white"/>
<path d="M950.636 124.7C950.63 123.177 951.077 121.686 951.92 120.416C952.763 119.147 953.964 118.155 955.372 117.568C956.779 116.981 958.33 116.824 959.826 117.118C961.323 117.411 962.699 118.142 963.78 119.217C964.86 120.292 965.597 121.663 965.897 123.156C966.197 124.65 966.046 126.199 965.464 127.607C964.882 129.015 963.894 130.219 962.626 131.066C961.358 131.913 959.867 132.365 958.342 132.365C957.33 132.376 956.325 132.186 955.387 131.805C954.449 131.425 953.596 130.861 952.879 130.147C952.161 129.434 951.593 128.584 951.208 127.649C950.823 126.714 950.629 125.711 950.636 124.7ZM961.686 124.7C961.668 124.043 961.456 123.407 961.078 122.869C960.699 122.332 960.17 121.918 959.558 121.68C958.945 121.441 958.275 121.388 957.633 121.527C956.99 121.667 956.402 121.992 955.944 122.463C955.485 122.934 955.176 123.529 955.054 124.175C954.932 124.82 955.004 125.487 955.26 126.092C955.516 126.697 955.945 127.214 956.493 127.577C957.041 127.94 957.684 128.133 958.342 128.133C958.792 128.145 959.241 128.064 959.658 127.894C960.075 127.725 960.453 127.471 960.767 127.148C961.081 126.826 961.325 126.442 961.483 126.02C961.641 125.599 961.711 125.149 961.686 124.7Z" fill="white"/>
<path d="M968.082 113.549C968.082 113.032 968.235 112.527 968.523 112.097C968.81 111.667 969.219 111.332 969.697 111.134C970.175 110.936 970.702 110.885 971.209 110.985C971.717 111.086 972.183 111.335 972.549 111.701C972.915 112.066 973.164 112.532 973.265 113.039C973.366 113.546 973.314 114.071 973.116 114.549C972.918 115.027 972.583 115.435 972.153 115.722C971.722 116.009 971.216 116.162 970.699 116.162C970.007 116.155 969.345 115.878 968.856 115.389C968.367 114.901 968.089 114.24 968.082 113.549ZM968.522 117.44H972.885V131.96H968.516L968.522 117.44Z" fill="white"/>
<path d="M991.718 124.7C991.769 125.66 991.629 126.62 991.306 127.525C990.984 128.43 990.485 129.263 989.84 129.975C989.194 130.688 988.413 131.266 987.543 131.676C986.673 132.086 985.73 132.32 984.769 132.365C983.961 132.409 983.153 132.273 982.404 131.966C981.655 131.66 980.983 131.191 980.438 130.593V137.766H976.077V117.44H980.438V118.804C980.983 118.207 981.655 117.738 982.404 117.432C983.153 117.126 983.961 116.99 984.769 117.034C985.73 117.078 986.673 117.312 987.544 117.722C988.414 118.133 989.195 118.71 989.841 119.423C990.486 120.135 990.985 120.969 991.307 121.874C991.629 122.78 991.769 123.74 991.718 124.7ZM987.357 124.7C987.34 124.02 987.122 123.361 986.732 122.804C986.341 122.247 985.795 121.818 985.162 121.57C984.528 121.321 983.835 121.265 983.17 121.408C982.504 121.551 981.896 121.887 981.421 122.374C980.945 122.861 980.625 123.476 980.498 124.144C980.372 124.812 980.445 125.503 980.71 126.129C980.974 126.755 981.418 127.29 981.985 127.666C982.552 128.042 983.217 128.242 983.898 128.242C984.365 128.263 984.832 128.185 985.267 128.013C985.702 127.841 986.095 127.579 986.422 127.245C986.749 126.91 987.001 126.511 987.162 126.072C987.323 125.634 987.389 125.166 987.357 124.7Z" fill="white"/>
<path d="M1005.18 127.602C1005.18 130.942 1002.27 132.365 999.132 132.365C997.863 132.479 996.589 132.212 995.475 131.595C994.36 130.979 993.456 130.044 992.88 128.909L996.659 126.761C996.811 127.285 997.14 127.741 997.589 128.053C998.038 128.365 998.581 128.513 999.126 128.474C1000.17 128.474 1000.7 128.154 1000.7 127.575C1000.7 125.976 993.542 126.819 993.542 121.796C993.542 118.629 996.218 117.034 999.242 117.034C1000.38 116.998 1001.5 117.267 1002.5 117.813C1003.5 118.36 1004.33 119.163 1004.91 120.14L1001.19 122.143C1001.03 121.763 1000.75 121.439 1000.41 121.212C1000.06 120.985 999.656 120.865 999.242 120.866C998.485 120.866 998.02 121.159 998.02 121.679C998.026 123.334 1005.18 122.23 1005.18 127.602Z" fill="white"/>
<path d="M1021.11 117.44V131.96H1016.75V130.594C1016.24 131.197 1015.61 131.672 1014.88 131.98C1014.16 132.288 1013.38 132.42 1012.59 132.366C1009.66 132.366 1007.16 130.276 1007.16 126.353V117.44H1011.52V125.715C1011.48 126.061 1011.52 126.41 1011.64 126.739C1011.75 127.068 1011.93 127.369 1012.17 127.62C1012.41 127.872 1012.71 128.067 1013.03 128.194C1013.35 128.321 1013.7 128.376 1014.05 128.355C1015.65 128.355 1016.75 127.426 1016.75 125.364V117.444L1021.11 117.44Z" fill="white"/>
<path d="M1046.12 123.044V131.958H1041.76V123.421C1041.76 121.969 1041.06 121.041 1039.67 121.041C1038.21 121.041 1037.4 122.057 1037.4 123.77V131.958H1033.04V123.421C1033.04 121.969 1032.34 121.041 1030.94 121.041C1029.49 121.041 1028.67 122.057 1028.67 123.77V131.958H1024.31V117.438H1028.67V118.773C1029.13 118.181 1029.72 117.711 1030.4 117.407C1031.08 117.103 1031.83 116.974 1032.57 117.032C1033.32 116.996 1034.06 117.153 1034.73 117.489C1035.4 117.824 1035.96 118.327 1036.38 118.948C1036.86 118.298 1037.5 117.782 1038.24 117.447C1038.98 117.112 1039.79 116.969 1040.6 117.032C1043.93 117.034 1046.12 119.414 1046.12 123.044Z" fill="white"/>
<path d="M1049.81 117.35C1051.6 117.35 1053.05 115.903 1053.05 114.118C1053.05 112.333 1051.6 110.885 1049.81 110.885C1048.02 110.885 1046.57 112.333 1046.57 114.118C1046.57 115.903 1048.02 117.35 1049.81 117.35Z" fill="white"/>
<path d="M1117.32 120.611C1116.77 121.17 1116.34 121.845 1116.08 122.587C1115.81 123.33 1115.71 124.122 1115.79 124.907L1115.76 124.88C1115.84 125.804 1115.71 126.734 1115.4 127.604C1115.08 128.475 1114.57 129.266 1113.92 129.921C1113.26 130.577 1112.47 131.081 1111.6 131.4C1110.72 131.718 1109.79 131.843 1108.87 131.765L1108.89 131.791C1107.79 131.688 1106.68 131.929 1105.71 132.48C1104.75 133.031 1103.98 133.865 1103.5 134.87C1103.03 135.875 1102.88 137 1103.07 138.094C1103.27 139.187 1103.79 140.194 1104.58 140.979C1105.36 141.763 1106.37 142.286 1107.47 142.477C1108.56 142.667 1109.69 142.516 1110.69 142.043C1111.7 141.571 1112.53 140.8 1113.08 139.836C1113.64 138.873 1113.88 137.763 1113.77 136.658L1113.8 136.684C1113.72 135.76 1113.85 134.831 1114.16 133.96C1114.48 133.089 1114.99 132.298 1115.65 131.643C1116.3 130.987 1117.09 130.483 1117.97 130.164C1118.84 129.846 1119.77 129.721 1120.69 129.799L1120.66 129.773C1121.57 129.854 1122.48 129.706 1123.31 129.343C1124.14 128.979 1124.87 128.412 1125.42 127.694C1125.97 126.976 1126.34 126.129 1126.48 125.234C1126.61 124.338 1126.52 123.422 1126.21 122.57C1125.9 121.719 1125.38 120.959 1124.7 120.361C1124.02 119.764 1123.2 119.348 1122.31 119.153C1121.42 118.958 1120.5 118.989 1119.63 119.244C1118.76 119.498 1117.97 119.969 1117.33 120.611H1117.32Z" fill="white"/>
<path d="M1106.49 128.333L1106.46 128.306C1107.25 128.385 1108.04 128.289 1108.79 128.024C1109.53 127.759 1110.21 127.333 1110.77 126.775C1111.32 126.217 1111.75 125.542 1112.02 124.799C1112.28 124.056 1112.38 123.263 1112.3 122.478L1112.33 122.504C1112.25 121.58 1112.38 120.651 1112.7 119.78C1113.01 118.909 1113.52 118.119 1114.18 117.463C1114.83 116.808 1115.62 116.303 1116.5 115.985C1117.37 115.666 1118.3 115.542 1119.22 115.62L1119.2 115.593C1120.3 115.697 1121.41 115.457 1122.38 114.907C1123.34 114.357 1124.12 113.522 1124.59 112.518C1125.06 111.513 1125.21 110.388 1125.02 109.294C1124.83 108.201 1124.31 107.193 1123.52 106.408C1122.73 105.623 1121.73 105.1 1120.63 104.909C1119.54 104.718 1118.41 104.869 1117.4 105.341C1116.4 105.813 1115.56 106.584 1115.01 107.548C1114.46 108.512 1114.22 109.622 1114.32 110.727L1114.3 110.699C1114.38 111.623 1114.25 112.553 1113.93 113.423C1113.61 114.294 1113.11 115.085 1112.45 115.741C1111.8 116.396 1111 116.901 1110.13 117.219C1109.26 117.537 1108.33 117.662 1107.4 117.584L1107.43 117.611C1106.64 117.532 1105.85 117.629 1105.11 117.894C1104.36 118.158 1103.69 118.585 1103.13 119.143C1102.57 119.701 1102.14 120.376 1101.87 121.119C1101.61 121.862 1101.51 122.655 1101.59 123.44L1101.56 123.414C1101.64 124.337 1101.52 125.267 1101.2 126.138C1100.88 127.008 1100.37 127.799 1099.72 128.454C1099.06 129.11 1098.27 129.614 1097.4 129.933C1096.53 130.251 1095.59 130.376 1094.67 130.298L1094.7 130.325C1093.59 130.221 1092.48 130.46 1091.51 131.011C1090.55 131.561 1089.78 132.395 1089.3 133.4C1088.83 134.405 1088.68 135.53 1088.87 136.624C1089.06 137.717 1089.59 138.725 1090.37 139.51C1091.16 140.295 1092.17 140.818 1093.26 141.009C1094.36 141.2 1095.48 141.049 1096.49 140.577C1097.5 140.105 1098.33 139.334 1098.88 138.37C1099.43 137.406 1099.67 136.296 1099.57 135.191L1099.6 135.217C1099.52 134.294 1099.64 133.364 1099.96 132.493C1100.28 131.623 1100.79 130.832 1101.44 130.176C1102.1 129.521 1102.89 129.016 1103.76 128.698C1104.63 128.379 1105.57 128.255 1106.49 128.333Z" fill="white"/>
<path d="M1096.65 125.389C1097.2 124.83 1097.63 124.155 1097.9 123.413C1098.16 122.67 1098.26 121.878 1098.18 121.093L1098.21 121.12C1098.13 120.196 1098.26 119.266 1098.58 118.395C1098.9 117.524 1099.4 116.733 1100.06 116.078C1100.71 115.422 1101.51 114.917 1102.38 114.599C1103.25 114.281 1104.18 114.157 1105.11 114.235L1105.08 114.209C1106.19 114.312 1107.3 114.073 1108.26 113.522C1109.23 112.972 1110 112.138 1110.47 111.134C1110.94 110.129 1111.09 109.004 1110.9 107.911C1110.71 106.818 1110.19 105.811 1109.4 105.026C1108.62 104.241 1107.61 103.718 1106.51 103.527C1105.42 103.336 1104.29 103.487 1103.29 103.959C1102.28 104.431 1101.44 105.201 1100.89 106.164C1100.34 107.128 1100.1 108.238 1100.21 109.342L1100.18 109.316C1100.26 110.24 1100.13 111.169 1099.81 112.04C1099.5 112.911 1098.99 113.702 1098.33 114.357C1097.68 115.013 1096.89 115.517 1096.01 115.836C1095.14 116.154 1094.21 116.279 1093.29 116.201L1093.31 116.227C1092.41 116.146 1091.5 116.294 1090.67 116.658C1089.84 117.021 1089.11 117.589 1088.56 118.307C1088 119.025 1087.64 119.872 1087.5 120.767C1087.36 121.663 1087.45 122.579 1087.77 123.43C1088.08 124.282 1088.6 125.042 1089.28 125.639C1089.96 126.236 1090.78 126.652 1091.67 126.847C1092.56 127.042 1093.48 127.011 1094.35 126.756C1095.22 126.502 1096.01 126.031 1096.65 125.389H1096.65Z" fill="white"/>
<path d="M1142.14 110.761H1146.5V131.958H1142.14V110.761Z" fill="white"/>
<path d="M1148.97 124.7C1148.97 123.177 1149.41 121.686 1150.26 120.416C1151.1 119.147 1152.3 118.155 1153.71 117.568C1155.11 116.981 1156.66 116.824 1158.16 117.118C1159.66 117.411 1161.03 118.142 1162.11 119.217C1163.2 120.292 1163.93 121.663 1164.23 123.156C1164.53 124.65 1164.38 126.199 1163.8 127.607C1163.22 129.015 1162.23 130.219 1160.96 131.066C1159.69 131.913 1158.2 132.365 1156.68 132.365C1155.66 132.376 1154.66 132.186 1153.72 131.805C1152.78 131.425 1151.93 130.861 1151.21 130.147C1150.5 129.434 1149.93 128.584 1149.54 127.649C1149.16 126.714 1148.96 125.711 1148.97 124.7ZM1160.02 124.7C1160 124.043 1159.79 123.407 1159.41 122.869C1159.03 122.332 1158.51 121.918 1157.89 121.68C1157.28 121.441 1156.61 121.388 1155.97 121.527C1155.32 121.667 1154.74 121.992 1154.28 122.463C1153.82 122.934 1153.51 123.529 1153.39 124.175C1153.27 124.82 1153.34 125.487 1153.6 126.092C1153.85 126.697 1154.28 127.214 1154.83 127.577C1155.38 127.94 1156.02 128.133 1156.68 128.133C1157.13 128.145 1157.58 128.064 1157.99 127.894C1158.41 127.725 1158.79 127.471 1159.1 127.148C1159.42 126.826 1159.66 126.442 1159.82 126.02C1159.98 125.599 1160.05 125.149 1160.02 124.7Z" fill="white"/>
<path d="M1181.77 117.44V131.227C1181.77 136.105 1177.96 138.167 1174.09 138.167C1172.73 138.269 1171.37 137.994 1170.15 137.373C1168.93 136.752 1167.91 135.809 1167.2 134.647L1170.92 132.498C1171.22 133.104 1171.7 133.604 1172.29 133.931C1172.88 134.257 1173.56 134.396 1174.24 134.327C1174.67 134.387 1175.1 134.349 1175.52 134.216C1175.93 134.084 1176.31 133.86 1176.63 133.562C1176.94 133.264 1177.18 132.899 1177.34 132.493C1177.49 132.088 1177.56 131.653 1177.52 131.221V129.893C1177.01 130.517 1176.36 131.013 1175.62 131.341C1174.89 131.669 1174.08 131.82 1173.28 131.781C1171.36 131.721 1169.54 130.917 1168.2 129.54C1166.87 128.164 1166.12 126.322 1166.12 124.406C1166.12 122.489 1166.87 120.648 1168.2 119.271C1169.54 117.895 1171.36 117.091 1173.28 117.031C1174.08 116.992 1174.89 117.143 1175.62 117.471C1176.36 117.798 1177.01 118.294 1177.52 118.918V117.437L1181.77 117.44ZM1177.52 124.408C1177.55 123.706 1177.37 123.011 1177 122.413C1176.63 121.815 1176.09 121.341 1175.45 121.053C1174.81 120.764 1174.1 120.673 1173.4 120.793C1172.71 120.912 1172.07 121.236 1171.56 121.723C1171.05 122.209 1170.7 122.836 1170.55 123.523C1170.41 124.21 1170.47 124.926 1170.73 125.577C1170.99 126.229 1171.45 126.787 1172.03 127.18C1172.61 127.573 1173.3 127.782 1174 127.781C1174.46 127.813 1174.92 127.749 1175.35 127.593C1175.79 127.436 1176.18 127.191 1176.51 126.874C1176.84 126.556 1177.1 126.172 1177.28 125.748C1177.45 125.323 1177.54 124.867 1177.52 124.408Z" fill="white"/>
<path d="M1184.24 124.7C1184.23 123.177 1184.68 121.686 1185.52 120.416C1186.36 119.147 1187.56 118.155 1188.97 117.568C1190.38 116.981 1191.93 116.824 1193.43 117.118C1194.92 117.411 1196.3 118.142 1197.38 119.217C1198.46 120.292 1199.2 121.663 1199.5 123.156C1199.8 124.65 1199.65 126.199 1199.06 127.607C1198.48 129.015 1197.49 130.219 1196.23 131.066C1194.96 131.913 1193.47 132.365 1191.94 132.365C1190.93 132.376 1189.92 132.186 1188.99 131.805C1188.05 131.425 1187.2 130.861 1186.48 130.147C1185.76 129.434 1185.19 128.584 1184.81 127.649C1184.42 126.714 1184.23 125.711 1184.24 124.7ZM1195.29 124.7C1195.27 124.043 1195.06 123.407 1194.68 122.869C1194.3 122.332 1193.77 121.918 1193.16 121.68C1192.54 121.441 1191.88 121.388 1191.23 121.527C1190.59 121.667 1190 121.992 1189.54 122.463C1189.09 122.934 1188.78 123.529 1188.65 124.175C1188.53 124.82 1188.6 125.487 1188.86 126.092C1189.12 126.697 1189.54 127.214 1190.09 127.577C1190.64 127.94 1191.28 128.133 1191.94 128.133C1192.39 128.145 1192.84 128.064 1193.26 127.894C1193.68 127.725 1194.05 127.471 1194.37 127.148C1194.68 126.826 1194.93 126.442 1195.08 126.02C1195.24 125.599 1195.31 125.149 1195.29 124.7Z" fill="white"/>
<path d="M1201.68 113.549C1201.68 113.032 1201.84 112.527 1202.12 112.097C1202.41 111.667 1202.82 111.332 1203.3 111.134C1203.78 110.936 1204.3 110.885 1204.81 110.985C1205.32 111.086 1205.78 111.335 1206.15 111.701C1206.52 112.066 1206.76 112.532 1206.87 113.039C1206.97 113.546 1206.91 114.071 1206.72 114.549C1206.52 115.027 1206.18 115.435 1205.75 115.722C1205.32 116.009 1204.82 116.162 1204.3 116.162C1203.61 116.155 1202.95 115.878 1202.46 115.389C1201.97 114.901 1201.69 114.24 1201.68 113.549ZM1202.12 117.44H1206.49V131.96H1202.12L1202.12 117.44Z" fill="white"/>
<path d="M1225.32 124.7C1225.37 125.66 1225.23 126.62 1224.91 127.525C1224.58 128.43 1224.09 129.263 1223.44 129.975C1222.79 130.688 1222.01 131.266 1221.14 131.676C1220.27 132.086 1219.33 132.32 1218.37 132.365C1217.56 132.409 1216.75 132.273 1216 131.966C1215.25 131.66 1214.58 131.191 1214.04 130.593V137.766H1209.68V117.44H1214.04V118.804C1214.58 118.207 1215.26 117.738 1216 117.432C1216.75 117.126 1217.56 116.99 1218.37 117.034C1219.33 117.078 1220.27 117.312 1221.14 117.722C1222.01 118.133 1222.79 118.71 1223.44 119.423C1224.09 120.135 1224.58 120.969 1224.91 121.874C1225.23 122.78 1225.37 123.74 1225.32 124.7ZM1220.96 124.7C1220.94 124.02 1220.72 123.361 1220.33 122.804C1219.94 122.247 1219.4 121.818 1218.76 121.57C1218.13 121.321 1217.43 121.265 1216.77 121.408C1216.1 121.551 1215.5 121.887 1215.02 122.374C1214.55 122.861 1214.22 123.476 1214.1 124.144C1213.97 124.812 1214.05 125.503 1214.31 126.129C1214.57 126.755 1215.02 127.29 1215.58 127.666C1216.15 128.042 1216.82 128.242 1217.5 128.242C1217.97 128.263 1218.43 128.185 1218.87 128.013C1219.3 127.841 1219.7 127.579 1220.02 127.245C1220.35 126.91 1220.6 126.511 1220.76 126.072C1220.92 125.634 1220.99 125.166 1220.96 124.7Z" fill="white"/>
<path d="M1238.78 127.602C1238.78 130.942 1235.87 132.365 1232.73 132.365C1231.46 132.479 1230.19 132.212 1229.07 131.595C1227.96 130.979 1227.06 130.044 1226.48 128.909L1230.26 126.761C1230.41 127.285 1230.74 127.741 1231.19 128.053C1231.64 128.365 1232.18 128.513 1232.73 128.474C1233.77 128.474 1234.3 128.154 1234.3 127.575C1234.3 125.976 1227.14 126.819 1227.14 121.796C1227.14 118.629 1229.82 117.034 1232.84 117.034C1233.98 116.998 1235.1 117.267 1236.1 117.813C1237.1 118.36 1237.93 119.163 1238.51 120.14L1234.79 122.143C1234.63 121.763 1234.35 121.439 1234.01 121.212C1233.66 120.985 1233.26 120.865 1232.84 120.866C1232.09 120.866 1231.62 121.159 1231.62 121.679C1231.63 123.334 1238.78 122.23 1238.78 127.602Z" fill="white"/>
<path d="M1254.71 117.44V131.96H1250.35V130.594C1249.84 131.197 1249.21 131.672 1248.48 131.98C1247.76 132.288 1246.98 132.42 1246.19 132.366C1243.26 132.366 1240.76 130.276 1240.76 126.353V117.44H1245.12V125.715C1245.08 126.061 1245.12 126.41 1245.24 126.739C1245.35 127.068 1245.53 127.369 1245.77 127.62C1246.01 127.872 1246.31 128.067 1246.63 128.194C1246.95 128.321 1247.3 128.376 1247.65 128.355C1249.25 128.355 1250.35 127.426 1250.35 125.364V117.444L1254.71 117.44Z" fill="white"/>
<path d="M1279.72 123.044V131.958H1275.36V123.421C1275.36 121.969 1274.66 121.041 1273.27 121.041C1271.81 121.041 1271 122.057 1271 123.77V131.958H1266.64V123.421C1266.64 121.969 1265.94 121.041 1264.54 121.041C1263.09 121.041 1262.27 122.057 1262.27 123.77V131.958H1257.91V117.438H1262.27V118.773C1262.73 118.181 1263.32 117.711 1264 117.407C1264.68 117.103 1265.43 116.974 1266.17 117.032C1266.92 116.996 1267.66 117.153 1268.33 117.489C1269 117.824 1269.56 118.327 1269.98 118.948C1270.46 118.298 1271.1 117.782 1271.84 117.447C1272.58 117.112 1273.39 116.969 1274.2 117.032C1277.53 117.034 1279.72 119.414 1279.72 123.044Z" fill="white"/>
<path d="M1283.41 117.35C1285.2 117.35 1286.65 115.903 1286.65 114.118C1286.65 112.333 1285.2 110.885 1283.41 110.885C1281.62 110.885 1280.17 112.333 1280.17 114.118C1280.17 115.903 1281.62 117.35 1283.41 117.35Z" fill="white"/>
</svg>
