<svg width="48" height="65" viewBox="0 0 48 65" fill="none" xmlns="http://www.w3.org/2000/svg">
<path fill-rule="evenodd" clip-rule="evenodd" d="M0.314575 7.29774C2.69672 6.3316 3.51795 4.83408 9.03101 3.02557C16.3163 0.637383 23.8462 1.15367 30.8477 4.02493C33.5258 5.12392 37.3058 7.41851 38.7007 9.02171C36.7352 9.71008 32.2758 9.88822 30.0507 9.76142C26.6722 9.56517 24.7641 8.8315 21.8203 8.32427C26.2948 11.3163 34.341 10.5887 39.9023 10.0513L41.264 11.3525L44.0658 11.3556C43.1601 10.3502 42.1939 9.38402 41.1191 8.27597C39.1113 6.20178 34.5583 3.73508 31.6146 2.50929C23.7043 -0.781645 14.6135 -0.271398 6.65187 3.19465C4.91885 3.94643 1.19618 5.80022 0.314575 7.29774ZM45.3701 16.7418C45.4214 16.8263 45.4758 16.9139 45.5241 16.9984C46.3453 16.9924 47.1695 16.9984 47.9968 17.0226C47.9274 16.8867 47.8549 16.7539 47.7855 16.6241C47.0548 15.2654 46.3242 14.1513 45.5603 13.152L45.3701 16.7418ZM16.2831 16.9683C15.5253 16.6573 14.7765 16.3765 14.0157 16.1651C14.3448 16.6633 15.1056 17.1856 16.1261 17.708C16.1563 17.4513 16.2076 17.2068 16.2831 16.9683ZM42.4324 51.1366C42.2483 51.1849 42.046 51.2332 41.8225 51.2785C36.3789 52.4167 30.6515 52.7911 25.1475 52.0967C23.5111 51.8884 21.7418 51.5774 20.2232 51.197C19.3989 50.9917 18.5475 50.6928 17.7052 50.409C17.3308 50.4452 16.9534 50.4784 16.576 50.5025C16.6183 50.5237 16.6575 50.5448 16.6937 50.5599C17.1647 50.7924 17.5814 50.9675 18.0041 51.1185C18.9732 51.4627 19.9515 51.7706 20.9961 52.1027C23.0039 52.7398 25.3045 53.1655 27.4481 53.4342C32.9038 54.1196 36.2823 53.7029 41.6927 53.1957C40.4639 55.6865 33.7311 59.8832 30.4734 61.2479C23.5624 64.1433 19.6978 63.4278 13.4028 63.2557C21.5637 65.6982 34.0813 62.4133 40.3854 56.6406C42.6528 54.5634 44.0749 53.2017 45.5664 51.1577C44.9384 51.1607 44.3104 51.1637 43.6884 51.1577C43.2657 51.1577 42.8491 51.1487 42.4324 51.1366Z" fill="#FFFDFD"/>
</svg>
