<svg width="22" height="19" viewBox="0 0 22 19" fill="none" xmlns="http://www.w3.org/2000/svg">
<path fill-rule="evenodd" clip-rule="evenodd" d="M7.74683 9.7288C7.029 10.2444 6.88226 10.5537 5.9582 10.9781L5.94234 3.52216C7.04089 3.07401 6.40635 3.77597 7.19953 2.87967C7.54853 2.48705 7.69527 2.05477 7.81028 1.59869C5.56161 1.62645 6.00183 1.39643 3.80868 3.37938C-0.831427 7.56738 0.747 4.22412 0.576466 18.6957C3.51124 17.8391 10.9196 13.4726 13.7116 11.8585L13.7274 2.0627L20.1482 1.97544L21.2349 0.317698C12.1609 0.0916411 13.7393 -0.515137 9.40458 3.6451C8.71848 4.30344 7.93719 4.67623 7.77062 5.75892C7.63578 6.61159 7.75872 8.72939 7.74683 9.7288Z" fill="white"/>
</svg>
