<svg width="17" height="15" viewBox="0 0 17 15" fill="none" xmlns="http://www.w3.org/2000/svg">
<path fill-rule="evenodd" clip-rule="evenodd" d="M6.09572 7.93281C5.54925 8.32531 5.43754 8.5608 4.73406 8.88386L4.72198 3.20776C5.5583 2.86659 5.07523 3.40098 5.67907 2.71864C5.94476 2.41974 6.05647 2.09065 6.14403 1.74344C4.43214 1.76458 4.76728 1.58946 3.09766 3.09906C-0.434809 6.28734 0.76683 3.74215 0.637005 14.7592C2.87121 14.1071 8.51109 10.7829 10.6366 9.55412L10.6487 2.09669L15.5368 2.03026L16.364 0.768238C9.45609 0.596144 10.6577 0.13421 7.35775 3.30135C6.83543 3.80254 6.24064 4.08634 6.11384 4.91059C6.01118 5.55971 6.10478 7.17197 6.09572 7.93281Z" fill="white"/>
</svg>
