<svg width="96" height="39" viewBox="0 0 96 39" fill="none" xmlns="http://www.w3.org/2000/svg">
<path fill-rule="evenodd" clip-rule="evenodd" d="M85.4272 21.3633C88.6198 18.9838 98.5663 9.70751 93.8706 5.61866C83.4403 -3.46724 51.5862 0.776277 38.0148 4.92065C35.5004 5.69004 35.2902 6.0311 34.16 7.74438C33.2597 9.10468 31.9113 10.4928 31.5266 11.9363C33.5889 11.4803 35.9922 10.3579 38.2805 9.7432C41.8816 8.77552 38.7723 6.02318 42.7699 5.12292L41.3422 8.86277L49.4049 7.16931C49.7975 6.31664 50.095 5.61865 50.4321 4.71046C50.9833 3.23117 50.8802 3.33429 52.534 3.13996C52.1255 4.48441 51.4711 5.72177 51.142 6.93137L58.8715 5.9161L60.4658 2.14452L61.9808 1.99778L60.5213 5.80901L68.1993 5.27758L69.5953 1.73206L71.0429 1.66464C70.7454 2.87425 70.0197 3.91331 69.8888 5.21413L79.7401 5.12292C79.8075 7.72059 76.3532 7.2883 75.4966 7.30417C61.5445 7.57385 48.6077 9.2078 35.2347 13.2768C28.9527 15.1884 30.6224 15.1051 26.4383 17.7305L0.0293591 31.2622C-0.141175 34.1097 0.398188 34.2763 2.51995 37.4292C5.76009 37.3895 8.65124 38.0162 11.4988 36.5646C13.5809 35.5057 15.9207 34.0899 18.2606 33.2928C24.3443 31.2146 29.2779 33.61 33.6008 36.0729C30.4955 35.9935 26.24 35.9578 24.2055 37.8575C45.8554 38.9323 43.5155 34.2129 50.1227 31.3336C52.9861 30.0843 56.5475 30.1121 59.7956 30.3857C58.816 31.0481 55.5322 31.758 55.5283 35.1726C55.5283 38.1431 58.5542 38.5079 61.1797 38.5278C64.1819 38.5476 67.1722 38.7181 70.1664 38.7578C73.006 38.7935 76.1986 38.6666 79.0183 38.9521C78.9231 35.6564 77.1187 33.963 75.5125 32.4401C73.6723 30.6991 72.5499 27.8753 72.8037 25.1904C74.0768 27.4708 73.7794 27.9943 75.7544 29.4617C76.3969 29.192 75.7583 29.5251 76.381 29.0968C76.5872 28.958 76.8807 28.7082 77.0592 28.5694L81.4336 25.0635C82.1673 24.4567 85.3003 22.0415 85.4272 21.3633Z" fill="#1195D6"/>
</svg>
