<svg width="73" height="30" viewBox="0 0 73 30" fill="none" xmlns="http://www.w3.org/2000/svg">
<path fill-rule="evenodd" clip-rule="evenodd" d="M65.3362 16.5063C67.7667 14.6948 75.3388 7.63288 71.7641 4.52008C63.8236 -2.39691 39.5734 0.833633 29.2417 3.9887C27.3275 4.57443 27.1675 4.83408 26.307 6.13837C25.6216 7.17396 24.5951 8.23068 24.3022 9.32967C25.8722 8.98246 27.7019 8.12803 29.444 7.66005C32.1854 6.92337 29.8183 4.82804 32.8617 4.14268L31.7748 6.98979L37.9128 5.70058C38.2117 5.05146 38.4382 4.52008 38.6948 3.82868C39.1145 2.70252 39.036 2.78102 40.295 2.63308C39.984 3.65659 39.4858 4.59858 39.2352 5.51944L45.1196 4.74652L46.3334 1.87526L47.4867 1.76355L46.3756 4.665L52.2208 4.26043L53.2836 1.56126L54.3856 1.50994C54.1591 2.43079 53.6066 3.22182 53.507 4.21212L61.0067 4.14268C61.058 6.12026 58.4283 5.79117 57.7761 5.80325C47.1546 6.00855 37.306 7.25246 27.1252 10.3502C22.3428 11.8054 23.6139 11.742 20.4286 13.7407L0.323742 24.0422C0.193917 26.21 0.604528 26.3368 2.2198 28.7371C4.68649 28.7069 6.88749 29.184 9.05528 28.0789C10.6404 27.2728 12.4217 26.1949 14.203 25.5881C18.8345 24.006 22.5904 25.8296 25.8813 27.7045C23.5173 27.6442 20.2777 27.617 18.7288 29.0632C35.2106 29.8814 33.4293 26.2885 38.4593 24.0966C40.6392 23.1456 43.3504 23.1667 45.8231 23.375C45.0774 23.8792 42.5775 24.4197 42.5745 27.0192C42.5745 29.2806 44.8781 29.5583 46.8768 29.5734C49.1624 29.5885 51.4388 29.7184 53.7183 29.7486C55.8801 29.7757 58.3105 29.6791 60.4572 29.8965C60.3847 27.3875 59.011 26.0983 57.7882 24.939C56.3873 23.6135 55.5329 21.4638 55.7261 19.4198C56.6953 21.1559 56.4688 21.5544 57.9724 22.6715C58.4615 22.4662 57.9754 22.7198 58.4494 22.3938C58.6064 22.2881 58.8298 22.0979 58.9657 21.9922L62.2959 19.3232C62.8544 18.8613 65.2396 17.0226 65.3362 16.5063Z" fill="#1195D6"/>
</svg>
