<svg width="63" height="84" viewBox="0 0 63 84" fill="none" xmlns="http://www.w3.org/2000/svg">
<path fill-rule="evenodd" clip-rule="evenodd" d="M0.152893 9.30938C3.28199 8.04029 4.36072 6.0732 11.6025 3.69762C21.1722 0.560588 31.0632 1.23876 40.2601 5.01034C43.7778 6.45393 48.7432 9.46801 50.5754 11.5739C47.9936 12.4781 42.136 12.7121 39.2131 12.5456C34.7752 12.2878 32.2688 11.3241 28.402 10.6578C34.2795 14.588 44.8486 13.6322 52.1538 12.9263L53.9425 14.6356L57.6228 14.6396C56.433 13.3189 55.164 12.0498 53.7521 10.5943C51.1148 7.86976 45.1342 4.62961 41.2674 3.01945C30.8768 -1.30339 18.9354 -0.633151 8.47732 3.91971C6.20089 4.90722 1.31094 7.34229 0.152893 9.30938ZM59.3361 21.7147C59.4035 21.8258 59.4749 21.9408 59.5383 22.0518C60.6171 22.0439 61.6998 22.0518 62.7864 22.0836C62.6952 21.9051 62.6 21.7306 62.5088 21.5601C61.5491 19.7754 60.5893 18.312 59.5859 16.9993L59.3361 21.7147ZM21.1286 22.0122C20.1331 21.6037 19.1496 21.2349 18.1502 20.9572C18.5824 21.6116 19.5819 22.2977 20.9223 22.9838C20.962 22.6467 21.0294 22.3255 21.1286 22.0122ZM55.4773 66.8944C55.2353 66.9578 54.9696 67.0213 54.6761 67.0808C47.5256 68.5759 40.0023 69.0677 32.7725 68.1555C30.6229 67.8819 28.2989 67.4734 26.3041 66.9737C25.2214 66.704 24.103 66.3114 22.9965 65.9386C22.5047 65.9862 22.009 66.0298 21.5133 66.0615C21.5688 66.0893 21.6203 66.1171 21.6679 66.1369C22.2866 66.4423 22.8339 66.6723 23.3891 66.8706C24.6622 67.3227 25.9471 67.7272 27.3193 68.1635C29.9567 69.0003 32.9787 69.5595 35.7945 69.9124C42.9609 70.8127 47.3987 70.2654 54.5056 69.5991C52.8915 72.871 44.0475 78.3836 39.7683 80.1762C30.6904 83.9795 25.614 83.0396 17.3451 82.8135C28.0649 86.0219 44.5076 81.707 52.7884 74.1242C55.7668 71.3957 57.6347 69.607 59.5939 66.9221C58.769 66.9261 57.9441 66.9301 57.1271 66.9221C56.5719 66.9221 56.0246 66.9102 55.4773 66.8944Z" fill="#FFFDFD"/>
</svg>
